<svg xmlns="http://www.w3.org/2000/svg" width="141" height="30" viewBox="0 0 141 30" fill="none">
  <path d="M5.00326 4.72116V2.92553H9.2337V4.96003C9.2337 6.87593 9.2337 8.51177 6.52049 8.51177V8.91208H15.0604V12.5841H9.11344V23.0004C9.11344 24.9954 9.27324 25.315 11.2698 25.315H14.6618V28.8667H9.91241C6.4793 28.8667 5.00326 27.4697 5.00326 23.918V12.5841H0.253906V8.91208C5.24213 8.91208 5.00326 7.31577 5.00326 4.72116Z" fill="black" />
  <path d="M16.2598 18.8492C16.2598 13.1427 20.65 8.43282 26.8754 8.43282C33.2606 8.43282 37.412 13.342 37.412 20.1259H20.5297C20.8493 23.1999 23.3237 25.6742 27.1143 25.6742C29.5095 25.6742 31.745 24.6759 32.8224 22.5211H37.0133C36.1353 26.3513 32.3826 29.3857 27.0747 29.3857C20.4507 29.3857 16.2598 24.6364 16.2598 18.8492ZM32.8619 17.0931C32.4633 14.2596 29.9494 12.1048 26.7551 12.1048C23.6037 12.1048 21.0882 14.2596 20.6895 17.0931H32.8619Z" fill="black" />
  <path d="M40.4043 0.929094H44.5557V28.8652H40.4043V0.929094Z" fill="black" />
  <path d="M50.8972 0.929586C52.2941 0.929586 53.411 1.96743 53.411 3.3644C53.411 4.80091 52.2941 5.83875 50.8972 5.83875C49.4607 5.83875 48.3438 4.80091 48.3438 3.3644C48.3438 1.96743 49.4607 0.929586 50.8972 0.929586ZM48.8215 8.9111H52.9712V28.8657H48.8215V8.9111Z" fill="black" />
  <path d="M72.4084 21.8029H76.5994C75.3622 26.1536 71.2503 29.3462 66.3824 29.3462C60.4354 29.3462 55.6465 24.6364 55.6465 18.8887C55.6465 13.1426 60.4354 8.43281 66.3824 8.43281C71.2503 8.43281 75.3622 11.6254 76.5994 15.9761H72.4084C71.3311 13.6616 69.1763 12.1048 66.4615 12.1048C62.6313 12.1048 59.7962 15.1376 59.7962 18.8491C59.7962 22.6414 62.6313 25.6742 66.4615 25.6742C69.1763 25.6742 71.3311 24.1174 72.4084 21.8029Z" fill="black" />
  <path d="M79.1914 18.8492C79.1914 13.1427 83.5816 8.43282 89.807 8.43282C96.1922 8.43282 100.344 13.342 100.344 20.1259H83.4614C83.781 23.1999 86.2553 25.6742 90.0476 25.6742C92.4412 25.6742 94.6767 24.6759 95.754 22.5211H99.9449C99.0669 26.3513 95.3142 29.3857 90.0064 29.3857C83.3823 29.3857 79.1914 24.6364 79.1914 18.8492ZM95.7936 17.0931C95.3949 14.2596 92.881 12.1048 89.6868 12.1048C86.5354 12.1048 84.0198 14.2596 83.6212 17.0931H95.7936Z" fill="black" />
  <path d="M107.689 8.91209V13.3023H108.087C108.886 10.7473 111.241 8.4327 115.151 8.4327C120.42 8.4327 123.971 13.0223 123.971 18.8886V28.8667H119.861V18.8886C119.861 14.7784 117.187 12.1047 113.875 12.1047C110.402 12.1047 107.689 15.0584 107.689 18.8886V28.8667H103.539V8.91209H107.689Z" fill="black" />
  <path d="M129.958 4.72116V2.92553H134.189V4.96003C134.189 6.87593 134.189 8.51177 131.476 8.51177V8.91208H140.016V12.5841H134.069V23.0004C134.069 24.9954 134.228 25.315 136.225 25.315H139.617V28.8667H134.867C131.434 28.8667 129.958 27.4697 129.958 23.918V12.5841H125.209V8.91208C130.197 8.91208 129.958 7.31577 129.958 4.72116Z" fill="black" />
</svg>