<svg xmlns="http://www.w3.org/2000/svg" width="25" height="24" viewBox="0 0 25 24" fill="none">
  <path fill-rule="evenodd" clip-rule="evenodd"
    d="M8.18138 7.60509C7.8356 7.80941 7.43226 7.92666 7.00154 7.92666C5.71881 7.92666 4.67896 6.8868 4.67896 5.60407C4.67896 4.32135 5.71881 3.28149 7.00154 3.28149C8.28426 3.28149 9.32412 4.32135 9.32412 5.60407C9.32412 6.03481 9.20687 6.43815 9.00254 6.78393L12.2088 9.99023C12.5546 9.78593 12.9579 9.6687 13.3886 9.6687C13.8695 9.6687 14.3162 9.81481 14.6868 10.0651L16.1268 8.67237C15.8647 8.29632 15.7111 7.83912 15.7111 7.34602C15.7111 6.06329 16.7509 5.02344 18.0336 5.02344C19.3164 5.02344 20.3562 6.06329 20.3562 7.34602C20.3562 8.62874 19.3164 9.6686 18.0336 9.6686C17.6669 9.6686 17.32 9.58359 17.0116 9.43221L15.4577 10.935C15.6198 11.2519 15.7112 11.6109 15.7112 11.9913C15.7112 12.422 15.594 12.8254 15.3896 13.1711L18.0152 15.7967C18.3609 15.5923 18.7643 15.4751 19.195 15.4751C20.4777 15.4751 21.5176 16.515 21.5176 17.7977C21.5176 19.0804 20.4777 20.1203 19.195 20.1203C17.9123 20.1203 16.8724 19.0804 16.8724 17.7977C16.8724 17.367 16.9897 16.9636 17.194 16.6178L14.5685 13.9923C14.2227 14.1966 13.8193 14.3139 13.3886 14.3139C13.3521 14.3139 13.3158 14.313 13.2798 14.3114L12.4058 17.0208L12.2853 16.9819C12.9474 17.3911 13.3886 18.1235 13.3886 18.9591C13.3886 20.2418 12.3487 21.2816 11.066 21.2816C9.78326 21.2816 8.74341 20.2418 8.74341 18.9591C8.74341 17.6763 9.78326 16.6365 11.066 16.6365C11.1469 16.6365 11.2268 16.6406 11.3056 16.6487L12.17 13.9689C11.8631 13.7793 11.6036 13.5204 11.4135 13.2138L8.14039 14.5708C8.15512 14.6766 8.16274 14.7846 8.16274 14.8944C8.16274 16.1771 7.12288 17.2169 5.84016 17.2169C4.55743 17.2169 3.51758 16.1771 3.51758 14.8944C3.51758 13.6116 4.55743 12.5718 5.84016 12.5718C6.59869 12.5718 7.2723 12.9354 7.69617 13.4979L11.0685 12.0997C11.0669 12.0638 11.066 12.0276 11.066 11.9913C11.066 11.5605 11.1833 11.1572 11.3877 10.8114L8.18138 7.60509ZM8.16283 5.60407C8.16283 6.24544 7.6429 6.76536 7.00154 6.76536C6.36017 6.76536 5.84025 6.24544 5.84025 5.60407C5.84025 4.96271 6.36017 4.44278 7.00154 4.44278C7.6429 4.44278 8.16283 4.96271 8.16283 5.60407ZM18.0336 8.50731C18.675 8.50731 19.1949 7.98738 19.1949 7.34602C19.1949 6.70466 18.675 6.18473 18.0336 6.18473C17.3923 6.18473 16.8723 6.70466 16.8723 7.34602C16.8723 7.98738 17.3923 8.50731 18.0336 8.50731ZM13.3886 13.1526C14.03 13.1526 14.5499 12.6326 14.5499 11.9913C14.5499 11.3499 14.03 10.83 13.3886 10.83C12.7473 10.83 12.2273 11.3499 12.2273 11.9913C12.2273 12.6326 12.7473 13.1526 13.3886 13.1526ZM11.066 20.1203C11.7074 20.1203 12.2273 19.6004 12.2273 18.9591C12.2273 18.3177 11.7074 17.7978 11.066 17.7978C10.4246 17.7978 9.9047 18.3177 9.9047 18.9591C9.9047 19.6004 10.4246 20.1203 11.066 20.1203ZM7.00145 14.8944C7.00145 15.5357 6.48152 16.0556 5.84016 16.0556C5.1988 16.0556 4.67887 15.5357 4.67887 14.8944C4.67887 14.253 5.1988 13.7331 5.84016 13.7331C6.48152 13.7331 7.00145 14.253 7.00145 14.8944ZM19.195 18.959C19.8364 18.959 20.3563 18.439 20.3563 17.7977C20.3563 17.1563 19.8364 16.6364 19.195 16.6364C18.5537 16.6364 18.0337 17.1563 18.0337 17.7977C18.0337 18.439 18.5537 18.959 19.195 18.959Z"
    fill="#FFA22F" />
</svg>