<svg xmlns="http://www.w3.org/2000/svg" width="25" height="24" viewBox="0 0 25 24" fill="none">
  <path
    d="M16 14.255H15.21L14.93 13.985C15.91 12.845 16.5 11.365 16.5 9.755C16.5 6.165 13.59 3.255 10 3.255C6.41 3.255 3.5 6.165 3.5 9.755C3.5 13.345 6.41 16.255 10 16.255C11.61 16.255 13.09 15.665 14.23 14.685L14.5 14.965V15.755L19.5 20.745L20.99 19.255L16 14.255ZM10 14.255C7.51 14.255 5.5 12.245 5.5 9.755C5.5 7.26501 7.51 5.255 10 5.255C12.49 5.255 14.5 7.26501 14.5 9.755C14.5 12.245 12.49 14.255 10 14.255Z"
    fill="#F56AAA" />
</svg>